<!-- Generator: Adobe Illustrator 19.0.0, SVG Export Plug-In  -->
<svg version="1.1"
	 xmlns="http://www.w3.org/2000/svg" xmlns:xlink="http://www.w3.org/1999/xlink" xmlns:a="http://ns.adobe.com/AdobeSVGViewerExtensions/3.0/"
	 x="0px" y="0px" width="600px" height="600px" viewBox="0 0 600 600" style="enable-background:new 0 0 600 600;"
	 xml:space="preserve">
<style type="text/css">
	.st0{fill:#FFFFFF;}
</style>
<defs>
	<symbol  id="DESIGN" viewBox="-299.8 -300.5 600 600">
		<polygon id="XMLID_677_" points="300,300 -300,300 -300,-300 300,-300 		"/>
		<path id="XMLID_629_" class="st0" d="M-29.6-74.5h79.9v-3h-80.6l-30,15h-73.4v-57h73.4l30,15h80.6v-3h-79.9l-30-15H-135h-2h-42.8
			v3h43v12h-43v3h43v12h-43v3h43v12h-43v3h43v12h-43v3h42.8h2h75.4L-29.6-74.5z M130.3-107.5h50v3h-50V-107.5z M130.3-74.5v-3h50v3
			H130.3z M180.3,90.5h-13.8c-0.8,17-14.6,30-31.5,30H-49.8v-3h171.4c-10.7-5-18.1-15.9-18.1-28.5s7.4-22.5,18.1-28.5H-49.8v-3H135
			c16.9,0,30.7,14,31.5,30h13.8V90.5z M135,61c-15.7,0-28.5,12.8-28.5,28.5S119.3,118,135,118s28.5-12.8,28.5-28.5S150.7,61,135,61z
			 M-183.6,120.5h53.9v-3h-46.6l12-12h34.6v-3h-35.9L-183.6,120.5z M98.3,102.5h-148v3h148V102.5z M-165.6,75.5h35.9v-3h-34.6
			l-12-12h46.6v-3h-53.9L-165.6,75.5z M98.3,72.5h-148v3h148V72.5z M135,106c-9.1,0-16.5-7.4-16.5-16.5S125.9,73,135,73
			s16.5,7.4,16.5,16.5S144.1,106,135,106z M135,76c-7.4,0-13.5,6.1-13.5,13.5S127.6,103,135,103s13.5-6.1,13.5-13.5S142.4,76,135,76
			z M61.3,129.5h-3v50h3V129.5z M118.3,45.5h-13v-3h13v-12h-13v-3h13v-12h-13v-3h13v-12h-13v-3h13v-12h-28v-3h28v-12h-13v-3h13v-12
			h-13v-3h13v-12h-13v-3h13v-12h-28v-3h28v-12h-13v-3h13v-12h-13v-3h13v-12h-13v-3h13v-12h-28v-3h28v-37h-57v224h-3v-227h63v227h-3
			V45.5z M118.3,179.5v-29h-13v-3h13v-12h-28v-3h28v-3h3v50H118.3z M-90.3,182.7l-31.5-47.3v-186h3v185l19,28.5v-0.5H-81l19.2-28
			v-185h3v186L-90.3,182.7z M-98,165.5l7.5,11.3l7.5-11.3H-98z M-61.8-130.5h3v-50h-3V-130.5z M-121.8-130.5h3v-50h-3V-130.5z
			 M-106.8,134.5h3v-185h-3V134.5z M-106.8-130.5h3v-50h-3V-130.5z M-76.8,134.5h3v-185h-3V134.5z M-76.8-130.5h3v-50h-3V-130.5z"/>
	</symbol>
</defs>
<use xlink:href="#DESIGN"  width="600" height="600" id="XMLID_15_" x="-299.8" y="-300.5" transform="matrix(1 0 0 -1 299.75 299.5)" style="overflow:visible;"/>
</svg>
