<!-- Generator: Adobe Illustrator 19.0.0, SVG Export Plug-In  -->
<svg version="1.1"
	 xmlns="http://www.w3.org/2000/svg" xmlns:xlink="http://www.w3.org/1999/xlink" xmlns:a="http://ns.adobe.com/AdobeSVGViewerExtensions/3.0/"
	 x="0px" y="0px" width="600px" height="600px" viewBox="0 0 600 600" style="enable-background:new 0 0 600 600;"
	 xml:space="preserve">
<style type="text/css">
	.st0{fill:#FFFFFF;}
</style>
<defs>
	<symbol  id="DEVELOPER" viewBox="-300 -300 600 600">
		<polygon id="XMLID_187_" points="300,-300 -300,-300 -300,300 300,300 		"/>
		<path id="XMLID_173_" class="st0" d="M-33.5-19H-36v-2.8V-180v-3h2.5h87.9H57v3v158.2v2.8h-2.5H-33.5z M54-180h-87v158h87V-180z
			 M18-171H3v3h15V-171z M181,61v-244H69v3h109V58H12V-7H9v68H181z M103-168v-3H88v3H103z M133,178h-313v3h316V73h-3V178z M-180-104
			h132v-3h-87v-73h87v-3h-117v3h27v73h-42V-104z M-180-56h132v-3h-132V-56z M-63-81v-3h-15v3H-63z M-83.2,39.1l22.7,39.3l2.6-1.5
			l-22.7-39.3L-83.2,39.1z M-95.9,77l-19-19l18.8-18.8l-2.1-2.1L-119.1,58L-98,79.1L-95.9,77z M-45.1,39l19,19l-18.8,18.8l2.1,2.1
			L-21.9,58L-43,36.9L-45.1,39z"/>
	</symbol>
</defs>
<use xlink:href="#DEVELOPER"  width="600" height="600" id="XMLID_15_" x="-300" y="-300" transform="matrix(1 0 0 -1 300 300)" style="overflow:visible;"/>
</svg>
